name Walk9.mot
datacolumns 19
datarows 20
range 2.82100000 2.84000000
endheader

                time	   L_ground_force_vx	   L_ground_force_vy	   L_ground_force_vz	   L_ground_force_px	   L_ground_force_py	   L_ground_force_pz	   R_ground_force_vx	   R_ground_force_vy	   R_ground_force_vz	   R_ground_force_px	   R_ground_force_py	   R_ground_force_pz	   L_ground_torque_x	   L_ground_torque_y	   L_ground_torque_z	   R_ground_torque_x	   R_ground_torque_y	   R_ground_torque_z	
          2.82100000	          7.29081804	        755.25666203	         52.78777260	         -0.18942949	          0.00000000	         -0.06359738	          0.00375240	          0.01709345	          0.00893729	          0.00005378	          0.00000000	          0.00002388	          0.00000000	          3.26125932	          0.00000000	          0.00000000	         -0.00131233	          0.00000000	
          2.82200000	          7.80874220	        756.16334859	         52.87411449	         -0.18928571	          0.00000000	         -0.06359652	          0.00375287	          0.02189118	          0.00980639	          0.00005924	          0.00000000	          0.00002631	          0.00000000	          3.25866216	          0.00000000	          0.00000000	         -0.00135806	          0.00000000	
          2.82300000	          8.33074471	        757.07448103	         52.96135727	         -0.18914332	          0.00000000	         -0.06359579	          0.00373788	          0.02704434	          0.01071575	          0.00006496	          0.00000000	          0.00002887	          0.00000000	          3.25590134	          0.00000000	          0.00000000	         -0.00140244	          0.00000000	
          2.82400000	          8.85682600	        757.98970874	         53.04952334	         -0.18900232	          0.00000000	         -0.06359517	          0.00370607	          0.03256466	          0.01166536	          0.00007094	          0.00000000	          0.00003154	          0.00000000	          3.25297154	          0.00000000	          0.00000000	         -0.00144515	          0.00000000	
          2.82500000	          9.38698448	        758.90868458	         53.13863321	         -0.18886271	          0.00000000	         -0.06359465	          0.00365599	          0.03846347	          0.01265504	          0.00007719	          0.00000000	          0.00003433	          0.00000000	          3.24986674	          0.00000000	          0.00000000	         -0.00148585	          0.00000000	
          2.82600000	          9.92121664	        759.83106456	         53.22870524	         -0.18872449	          0.00000000	         -0.06359423	          0.00358616	          0.04475157	          0.01368442	          0.00008370	          0.00000000	          0.00003724	          0.00000000	          3.24658002	          0.00000000	          0.00000000	         -0.00152421	          0.00000000	
          2.82700000	         10.45951748	        760.75650714	         53.31975550	         -0.18858766	          0.00000000	         -0.06359391	          0.00349503	          0.05143918	          0.01475293	          0.00009046	          0.00000000	          0.00004026	          0.00000000	          3.24310331	          0.00000000	          0.00000000	         -0.00155983	          0.00000000	
          2.82800000	         11.00188105	        761.68467259	         53.41179779	         -0.18845221	          0.00000000	         -0.06359366	          0.00338100	          0.05853579	          0.01585981	          0.00009748	          0.00000000	          0.00004340	          0.00000000	          3.23942727	          0.00000000	          0.00000000	         -0.00159232	          0.00000000	
          2.82900000	         11.54830099	        762.61522272	         53.50484367	         -0.18831812	          0.00000000	         -0.06359348	          0.00324241	          0.06605011	          0.01700405	          0.00010476	          0.00000000	          0.00004665	          0.00000000	          3.23554144	          0.00000000	          0.00000000	         -0.00162125	          0.00000000	
          2.83000000	         12.09877096	        763.54782130	         53.59890271	         -0.18818540	          0.00000000	         -0.06359337	          0.00307755	          0.07398992	          0.01818439	          0.00011227	          0.00000000	          0.00005001	          0.00000000	          3.23143457	          0.00000000	          0.00000000	         -0.00164618	          0.00000000	
          2.83100000	         12.65328483	        764.48213515	         53.69398266	         -0.18805403	          0.00000000	         -0.06359331	          0.00288466	          0.08236196	          0.01939932	          0.00012002	          0.00000000	          0.00005348	          0.00000000	          3.22709515	          0.00000000	          0.00000000	         -0.00166662	          0.00000000	
          2.83200000	         13.21183678	        765.41783549	         53.79008955	         -0.18792399	          0.00000000	         -0.06359329	          0.00266193	          0.09117183	          0.02064702	          0.00012800	          0.00000000	          0.00005705	          0.00000000	          3.22251196	          0.00000000	          0.00000000	         -0.00168208	          0.00000000	
          2.83300000	         13.77442118	        766.35459914	         53.88722774	         -0.18779527	          0.00000000	         -0.06359330	          0.00240752	          0.10042382	          0.02192540	          0.00013618	          0.00000000	          0.00006071	          0.00000000	          3.21767451	          0.00000000	          0.00000000	         -0.00169204	          0.00000000	
          2.83400000	         14.34103250	        767.29210910	         53.98539983	         -0.18766785	          0.00000000	         -0.06359334	          0.00211951	          0.11012082	          0.02323202	          0.00014457	          0.00000000	          0.00006447	          0.00000000	          3.21257332	          0.00000000	          0.00000000	         -0.00169592	          0.00000000	
          2.83500000	         14.91166495	        768.23005465	         54.08460678	         -0.18754173	          0.00000000	         -0.06359340	          0.00179599	          0.12026412	          0.02456411	          0.00015313	          0.00000000	          0.00006830	          0.00000000	          3.20720002	          0.00000000	          0.00000000	         -0.00169317	          0.00000000	
          2.83600000	         15.48631211	        769.16813109	         54.18484794	         -0.18741688	          0.00000000	         -0.06359348	          0.00143499	          0.13085330	          0.02591854	          0.00016186	          0.00000000	          0.00007222	          0.00000000	          3.20154724	          0.00000000	          0.00000000	         -0.00168316	          0.00000000	
          2.83700000	         16.06496646	        770.10603932	         54.28612127	         -0.18729328	          0.00000000	         -0.06359356	          0.00103452	          0.14188607	          0.02729179	          0.00017074	          0.00000000	          0.00007619	          0.00000000	          3.19560849	          0.00000000	          0.00000000	         -0.00166528	          0.00000000	
          2.83800000	         16.64761902	        771.04348563	         54.38842367	         -0.18717093	          0.00000000	         -0.06359364	          0.00059257	          0.15335809	          0.02867993	          0.00017973	          0.00000000	          0.00008022	          0.00000000	          3.18937808	          0.00000000	          0.00000000	         -0.00163886	          0.00000000	
          2.83900000	         17.23425901	        771.98018172	         54.49175130	         -0.18704981	          0.00000000	         -0.06359373	          0.00010709	          0.16526279	          0.03007863	          0.00018882	          0.00000000	          0.00008430	          0.00000000	          3.18285115	          0.00000000	          0.00000000	         -0.00160321	          0.00000000	
          2.84000000	         17.82487370	        772.91584537	         54.59609985	         -0.18692990	          0.00000000	         -0.06359380	         -0.00042394	          0.17759122	          0.03148307	          0.00019797	          0.00000000	          0.00008840	          0.00000000	          3.17602395	          0.00000000	          0.00000000	         -0.00155763	          0.00000000	
